<svg version="1.1" id="Layer_1" xmlns="http://www.w3.org/2000/svg" xmlns:xlink="http://www.w3.org/1999/xlink" x="0px" y="0px"
	 width="100%" viewBox="0 0 512 512" enable-background="new 0 0 512 512" xml:space="preserve">
<path fill="#000000" opacity="1.000000" stroke="none" 
	d="
M298.000000,513.000000 
	C198.690781,513.000000 99.881554,513.000000 1.036167,513.000000 
	C1.036167,342.399078 1.036167,171.798172 1.036167,1.098622 
	C171.559235,1.098622 342.118561,1.098622 512.838928,1.098622 
	C512.838928,171.666550 512.838928,342.333252 512.838928,513.000000 
	C441.464813,513.000000 369.982391,513.000000 298.000000,513.000000 
M365.658875,442.604279 
	C372.855988,441.508789 380.106720,440.892548 387.309296,439.735809 
	C417.236084,434.929596 445.025879,424.506683 470.708466,408.518494 
	C484.740234,399.783295 497.311005,389.193359 508.699890,377.193848 
	C510.661102,375.127502 511.715240,372.991028 511.659668,370.099640 
	C511.563873,365.115082 511.089264,360.165558 510.779846,355.203918 
	C509.757263,338.805969 507.746063,322.507385 505.265259,306.318695 
	C501.223236,279.941681 495.765472,253.817596 488.582489,228.072189 
	C478.415070,191.629715 465.056183,156.506592 446.305725,123.546509 
	C444.304382,120.028534 441.804504,117.057945 438.476562,114.680679 
	C427.076385,106.537186 414.977997,99.514107 402.429993,93.408325 
	C379.768707,82.381493 356.047058,74.529594 330.864502,71.603455 
	C326.901733,71.142998 323.229553,74.678352 322.303406,80.172852 
	C321.579224,84.469116 325.264191,83.942116 327.482544,84.570648 
	C348.819977,90.616249 369.666107,97.834045 388.834167,109.268501 
	C402.118927,117.193336 414.383057,126.440895 425.604401,137.425858 
	C313.237854,79.340752 200.971512,79.339455 88.562164,137.821640 
	C88.739410,136.874557 88.687225,136.452194 88.865662,136.299698 
	C104.060249,123.314682 120.020760,111.439819 137.968399,102.442520 
	C153.485901,94.663460 169.670868,88.720589 186.527298,84.574608 
	C188.393356,84.115646 191.126724,84.235008 191.673492,82.150635 
	C192.487183,79.048744 190.082825,76.548485 188.703964,73.955887 
	C187.648376,71.971130 185.831451,71.600754 183.573120,71.864655 
	C170.016907,73.448814 156.732437,76.336067 143.761627,80.488800 
	C122.946503,87.152969 103.338791,96.510162 84.953735,108.306580 
	C79.012527,112.118645 72.436852,115.341537 68.643196,121.841156 
	C60.168102,136.361404 52.859154,151.465347 46.392361,166.963745 
	C33.764256,197.228470 24.335484,228.505951 17.379105,260.533722 
	C12.665725,282.234558 8.651225,304.045135 6.220114,326.153595 
	C5.061017,336.694427 4.180964,347.264557 2.919957,357.779785 
	C1.781463,367.273407 1.424145,375.840363 10.339330,382.253540 
	C14.341843,385.132782 17.630877,388.998047 21.387306,392.287811 
	C38.489758,407.265717 58.037659,418.060394 78.920341,426.609528 
	C97.601837,434.257507 117.157616,438.635315 137.076370,441.507507 
	C151.673431,443.612305 151.760849,443.639771 160.880783,431.828888 
	C164.462738,427.190002 168.431091,422.759491 171.333160,416.994904 
	C153.522003,410.430298 136.842407,402.706848 121.372734,392.551361 
	C102.261124,380.005035 82.223602,362.654755 79.583656,355.890411 
	C88.661041,362.083313 97.454903,367.710449 106.607849,372.721619 
	C147.304749,395.002838 191.369263,405.139282 237.267761,407.411316 
	C264.308472,408.749847 291.338135,407.439301 318.202271,402.817596 
	C353.647614,396.719604 387.000580,385.312683 417.768738,366.593323 
	C423.321228,363.215179 428.779694,359.682495 434.281586,356.221161 
	C409.381927,385.001312 378.035522,404.080841 342.266205,417.228790 
	C348.233002,425.232880 353.581757,432.409241 358.932129,439.584381 
	C360.400238,441.553223 362.164062,442.949982 365.658875,442.604279 
z"/>
<path fill="#000000" opacity="1.000000" stroke="none" 
	d="
M169.267502,236.202332 
	C187.899963,229.220169 206.806732,239.482010 215.381668,254.530762 
	C226.006256,273.176605 224.044937,296.311768 210.370804,312.744354 
	C194.691238,331.586914 167.234436,330.482666 151.582138,311.021240 
	C134.860199,290.229919 138.993225,254.399887 162.199402,239.549316 
	C164.319351,238.192673 166.526093,237.081543 169.267502,236.202332 
z"/>
<path fill="#000000" opacity="1.000000" stroke="none" 
	d="
M334.593231,233.860168 
	C356.356171,237.034988 367.944733,250.521912 371.651489,270.577667 
	C376.247314,295.443787 364.500000,319.790070 338.854187,325.759705 
	C324.624939,329.071869 306.988434,320.321533 299.043304,306.332428 
	C287.730774,286.414246 289.652863,263.840363 304.170166,246.964722 
	C311.816956,238.075699 322.102905,233.473846 334.593231,233.860168 
z"/>
</svg>