<svg version="1.1" id="Layer_1" xmlns="http://www.w3.org/2000/svg" xmlns:xlink="http://www.w3.org/1999/xlink" x="0px" y="0px"
	 width="100%" viewBox="0 0 225 224" enable-background="new 0 0 225 224" xml:space="preserve">
<path fill="#FDFDFD" opacity="1.000000" stroke="none" 
	d="
M1.000000,164.000000 
	C1.000000,129.979111 1.000000,95.958214 1.368577,61.743942 
	C2.145402,60.343693 2.785677,59.163486 2.927920,57.926033 
	C6.366221,28.014185 24.821161,8.274616 54.288788,2.940381 
	C55.277222,2.761456 56.100006,1.667460 57.000000,1.000001 
	C94.687561,1.000000 132.375122,1.000000 170.240768,1.352901 
	C174.036224,2.660884 177.685318,3.510603 181.265823,4.588177 
	C204.268982,11.511113 218.424408,26.743681 223.908875,50.105846 
	C224.191269,51.308723 224.808807,52.432922 225.270325,53.593742 
	C225.513550,53.395828 225.756775,53.197914 226.000000,53.000000 
	C226.000000,92.687561 226.000000,132.375122 225.658081,172.239838 
	C224.991135,172.773285 224.455307,173.085876 224.371124,173.492081 
	C218.488525,201.878250 201.090591,218.237717 172.669937,223.193436 
	C172.027817,223.305389 171.552902,224.376373 171.000000,225.000000 
	C133.645767,225.000000 96.291542,225.000000 58.769516,224.650024 
	C57.428654,223.856705 56.267494,223.378265 55.080585,222.975723 
	C47.617069,220.444534 39.605938,218.926910 32.784870,215.218338 
	C14.352077,205.196579 5.544836,188.535599 2.950399,168.155869 
	C2.766492,166.711227 1.671402,165.382584 1.000000,164.000000 
M203.112732,52.514721 
	C199.455811,37.816746 190.191437,28.457485 175.703659,24.509333 
	C170.613892,23.122292 165.237045,22.146889 159.983231,22.109293 
	C129.163971,21.888746 98.337402,21.660309 67.522964,22.104982 
	C40.795017,22.490686 23.615894,38.265301 23.150091,63.339699 
	C22.534557,96.474167 22.489809,129.638763 23.179440,162.770020 
	C23.545033,180.333862 31.519299,194.309647 49.058521,200.417435 
	C55.530422,202.671204 62.708881,203.759918 69.583710,203.843246 
	C99.402618,204.204666 129.231506,204.266602 159.050812,203.922501 
	C188.282700,203.585205 204.346558,188.249008 205.023285,159.059341 
	C205.737335,128.260056 205.248520,97.430763 205.084671,66.615639 
	C205.061081,62.182793 203.914017,57.755917 203.112732,52.514721 
z"/>
<path fill="#020202" opacity="1.000000" stroke="none" 
	d="
M1.000000,164.468658 
	C1.671402,165.382584 2.766492,166.711227 2.950399,168.155869 
	C5.544836,188.535599 14.352077,205.196579 32.784870,215.218338 
	C39.605938,218.926910 47.617069,220.444534 55.080585,222.975723 
	C56.267494,223.378265 57.428654,223.856705 58.300858,224.650024 
	C39.070713,225.000000 20.141430,225.000000 1.000000,225.000000 
	C1.000000,204.979599 1.000000,184.958466 1.000000,164.468658 
z"/>
<path fill="#030303" opacity="1.000000" stroke="none" 
	d="
M56.531342,1.000001 
	C56.100006,1.667460 55.277222,2.761456 54.288788,2.940381 
	C24.821161,8.274616 6.366221,28.014185 2.927920,57.926033 
	C2.785677,59.163486 2.145402,60.343693 1.368577,61.275284 
	C1.000000,41.075726 1.000000,21.151451 1.000000,1.000000 
	C19.353603,1.000000 37.708141,1.000000 56.531342,1.000001 
z"/>
<path fill="#030303" opacity="1.000000" stroke="none" 
	d="
M171.468658,225.000000 
	C171.552902,224.376373 172.027817,223.305389 172.669937,223.193436 
	C201.090591,218.237717 218.488525,201.878250 224.371124,173.492081 
	C224.455307,173.085876 224.991135,172.773285 225.658081,172.708496 
	C226.000000,190.262161 226.000000,207.524307 226.000000,225.000000 
	C207.979675,225.000000 189.958496,225.000000 171.468658,225.000000 
z"/>
<path fill="#030303" opacity="1.000000" stroke="none" 
	d="
M226.000000,52.531342 
	C225.756775,53.197914 225.513550,53.395828 225.270325,53.593742 
	C224.808807,52.432922 224.191269,51.308723 223.908875,50.105846 
	C218.424408,26.743681 204.268982,11.511113 181.265823,4.588177 
	C177.685318,3.510603 174.036224,2.660884 170.709427,1.352901 
	C189.258057,1.000000 207.516113,1.000000 226.000000,1.000000 
	C226.000000,18.020229 226.000000,35.041454 226.000000,52.531342 
z"/>
<path fill="#010101" opacity="1.000000" stroke="none" 
	d="
M203.199799,52.920502 
	C203.914017,57.755917 205.061081,62.182793 205.084671,66.615639 
	C205.248520,97.430763 205.737335,128.260056 205.023285,159.059341 
	C204.346558,188.249008 188.282700,203.585205 159.050812,203.922501 
	C129.231506,204.266602 99.402618,204.204666 69.583710,203.843246 
	C62.708881,203.759918 55.530422,202.671204 49.058521,200.417435 
	C31.519299,194.309647 23.545033,180.333862 23.179440,162.770020 
	C22.489809,129.638763 22.534557,96.474167 23.150091,63.339699 
	C23.615894,38.265301 40.795017,22.490686 67.522964,22.104982 
	C98.337402,21.660309 129.163971,21.888746 159.983231,22.109293 
	C165.237045,22.146889 170.613892,23.122292 175.703659,24.509333 
	C190.191437,28.457485 199.455811,37.816746 203.199799,52.920502 
M134.357910,166.937973 
	C135.710770,166.318558 137.070847,165.714417 138.415405,165.077515 
	C164.939392,152.513367 178.040390,123.297302 169.368835,96.057854 
	C160.406113,67.903778 132.521622,51.047108 103.448730,56.207977 
	C70.705780,62.020340 49.629257,95.323051 58.099564,127.863548 
	C66.499527,160.133774 101.932045,178.545471 134.357910,166.937973 
M185.656708,46.075977 
	C180.705231,39.884277 174.444000,38.061909 168.211990,40.998600 
	C162.495453,43.692387 159.235580,49.928734 160.542252,55.671322 
	C162.400528,63.838177 170.296814,68.689384 177.814728,66.282967 
	C186.336868,63.555088 189.540527,55.923111 185.656708,46.075977 
z"/>
<path fill="#FCFCFC" opacity="1.000000" stroke="none" 
	d="
M133.971207,167.012756 
	C101.932045,178.545471 66.499527,160.133774 58.099564,127.863548 
	C49.629257,95.323051 70.705780,62.020340 103.448730,56.207977 
	C132.521622,51.047108 160.406113,67.903778 169.368835,96.057854 
	C178.040390,123.297302 164.939392,152.513367 138.415405,165.077515 
	C137.070847,165.714417 135.710770,166.318558 133.971207,167.012756 
M78.137550,123.045258 
	C78.731972,124.592056 79.282799,126.157288 79.927437,127.682861 
	C87.883301,146.510849 110.046478,155.179886 129.085388,146.922607 
	C147.753510,138.826126 156.469635,116.587196 148.203552,98.143211 
	C140.272919,80.447670 120.908142,71.726318 102.716415,77.657059 
	C83.726959,83.847862 73.678078,101.955826 78.137550,123.045258 
z"/>
<path fill="#FAFAFA" opacity="1.000000" stroke="none" 
	d="
M185.834503,46.415066 
	C189.540527,55.923111 186.336868,63.555088 177.814728,66.282967 
	C170.296814,68.689384 162.400528,63.838177 160.542252,55.671322 
	C159.235580,49.928734 162.495453,43.692387 168.211990,40.998600 
	C174.444000,38.061909 180.705231,39.884277 185.834503,46.415066 
z"/>
<path fill="#010101" opacity="1.000000" stroke="none" 
	d="
M78.060036,122.636246 
	C73.678078,101.955826 83.726959,83.847862 102.716415,77.657059 
	C120.908142,71.726318 140.272919,80.447670 148.203552,98.143211 
	C156.469635,116.587196 147.753510,138.826126 129.085388,146.922607 
	C110.046478,155.179886 87.883301,146.510849 79.927437,127.682861 
	C79.282799,126.157288 78.731972,124.592056 78.060036,122.636246 
z"/>
</svg>