<svg version="1.1" id="Layer_1" xmlns="http://www.w3.org/2000/svg" xmlns:xlink="http://www.w3.org/1999/xlink" x="0px" y="0px"
	 width="100%" viewBox="0 0 512 512" enable-background="new 0 0 512 512" xml:space="preserve">
<path fill="#000000" opacity="1.000000" stroke="none" 
	d="
M304.000000,513.000000 
	C202.691269,513.000000 101.882530,513.000000 1.036899,513.000000 
	C1.036899,342.399567 1.036899,171.799149 1.036899,1.099354 
	C171.558746,1.099354 342.117554,1.099354 512.838196,1.099354 
	C512.838196,171.666550 512.838196,342.333252 512.838196,513.000000 
	C443.465790,513.000000 373.982880,513.000000 304.000000,513.000000 
M51.654762,445.667358 
	C57.714287,447.923645 63.717865,450.346313 69.843430,452.406219 
	C91.505241,459.690674 113.781006,463.900757 136.620468,464.544617 
	C151.439484,464.962402 166.282974,464.430511 181.109787,464.672760 
	C202.511292,465.022461 223.468414,461.954742 244.091080,456.634277 
	C292.789886,444.070435 334.927277,419.675232 370.944519,384.777802 
	C379.498047,376.490234 387.320404,367.404114 394.867920,358.103912 
	C416.349426,331.634155 432.041687,302.050323 443.925079,270.205353 
	C457.564880,233.653549 462.715820,195.717514 463.580872,157.003098 
	C463.646698,154.057373 464.624207,152.185623 467.037628,150.384659 
	C482.188446,139.078430 495.003723,125.406937 506.373779,110.380936 
	C508.474457,107.604836 510.975922,104.809113 511.691071,99.847710 
	C494.631073,104.640640 478.679535,111.169510 462.228119,113.025681 
	C468.228485,106.569626 474.178802,100.110870 480.191986,93.711166 
	C488.656250,84.702736 493.617767,73.583313 498.995941,62.710907 
	C499.543549,61.603840 499.797485,60.475304 498.737762,59.513912 
	C497.697601,58.570267 496.519257,58.948097 495.446716,59.402046 
	C492.081543,60.826309 488.720398,62.265202 485.404144,63.798843 
	C471.209503,70.363327 456.746796,76.164818 441.490265,79.841080 
	C435.879639,81.193039 431.250275,80.120384 426.851379,76.146698 
	C416.520996,66.814941 404.745361,59.899155 391.540894,55.188065 
	C377.727295,50.259663 363.529388,50.321503 349.220947,50.378033 
	C323.592560,50.479290 302.180115,60.811211 283.614746,77.615547 
	C271.467957,88.610115 263.147400,102.360825 256.909760,117.462753 
	C251.053177,131.642059 250.880722,146.647781 250.712387,161.524445 
	C250.656281,166.481659 250.924591,171.649109 251.827408,176.530014 
	C249.563507,177.748001 247.498856,177.509552 245.568619,177.309647 
	C231.229538,175.824554 216.947281,173.943192 202.879562,170.685242 
	C182.749908,166.023376 163.261230,159.424820 144.530777,150.742722 
	C128.073486,143.114288 112.221756,134.378555 97.451515,123.732101 
	C77.804634,109.570534 60.472809,92.843918 43.444298,75.754616 
	C36.129440,68.413651 35.166851,68.660522 31.072376,78.011810 
	C22.712799,97.104080 20.608757,116.976074 23.315868,137.502365 
	C26.676966,162.987427 38.680721,183.825043 57.323647,201.149628 
	C59.153141,202.849762 62.336597,203.372375 62.519516,206.666245 
	C60.924713,207.740891 59.221050,207.480133 57.629539,207.206863 
	C47.281719,205.430176 37.210632,202.767090 27.791817,197.939087 
	C22.857328,195.409714 21.676113,196.266418 21.342268,201.638107 
	C21.008465,207.009094 21.571157,212.361130 22.692236,217.487167 
	C28.793680,245.385574 43.295990,267.954651 66.599411,284.650513 
	C76.660576,291.858887 88.089394,296.316162 100.101959,300.404419 
	C97.401260,302.076233 94.864021,302.403900 92.219269,302.390533 
	C82.955025,302.343750 73.747665,303.813232 64.406830,302.571289 
	C58.469299,301.781830 57.816364,302.976715 60.077866,308.753632 
	C66.290817,324.624298 75.606911,338.261169 88.580185,349.582123 
	C105.682121,364.505920 125.490326,372.755554 147.771317,375.643768 
	C149.416855,375.857117 151.087219,375.941345 151.617722,378.268860 
	C130.123978,393.727142 106.721161,405.001801 81.241287,412.492889 
	C55.738152,419.990784 29.637959,419.587799 3.348564,420.192993 
	C18.168350,431.015625 34.531940,438.252289 51.654762,445.667358 
z"/>
</svg>